<?xml version="1.0" encoding="UTF-8" standalone="no"?><svg xmlns="http://www.w3.org/2000/svg" xmlns:xlink="http://www.w3.org/1999/xlink" contentStyleType="text/css" height="594px" preserveAspectRatio="none" style="width:724px;height:594px;background:#FFFFFF;" version="1.1" viewBox="0 0 724 594" width="724px" zoomAndPan="magnify"><defs/><g><rect fill="#F1F1F1" height="471.4844" rx="12.5" ry="12.5" style="stroke:#181818;stroke-width:0.5;" width="710.5" x="7" y="7"/><rect fill="#FFFFFF" height="443.1875" rx="12.5" ry="12.5" style="stroke:#FFFFFF;stroke-width:1.0;" width="708.5" x="8" y="34.2969"/><line style="stroke:#181818;stroke-width:0.5;" x1="7" x2="717.5" y1="33.2969" y2="33.2969"/><text fill="#000000" font-family="sans-serif" font-size="14" lengthAdjust="spacing" textLength="118" x="303.25" y="24.9951">Read_Command</text><g id="Read_Command.READ_IDLE"><rect fill="#F1F1F1" height="52.5938" rx="12.5" ry="12.5" style="stroke:#181818;stroke-width:0.5;" width="99" x="203" y="101.2969"/><line style="stroke:#181818;stroke-width:0.5;" x1="203" x2="302" y1="127.5938" y2="127.5938"/><text fill="#000000" font-family="sans-serif" font-size="14" lengthAdjust="spacing" textLength="79" x="213" y="119.292">READ_IDLE</text><text fill="#000000" font-family="sans-serif" font-size="14" lengthAdjust="spacing" textLength="4" x="208" y="145.5889"> </text></g><g id="Read_Command.READ_SCK_RISING"><rect fill="#F1F1F1" height="52.5938" rx="12.5" ry="12.5" style="stroke:#181818;stroke-width:0.5;" width="150" x="464.5" y="101.2969"/><line style="stroke:#181818;stroke-width:0.5;" x1="464.5" x2="614.5" y1="127.5938" y2="127.5938"/><text fill="#000000" font-family="sans-serif" font-size="14" lengthAdjust="spacing" textLength="130" x="474.5" y="119.292">READ_SCK_RISING</text><text fill="#000000" font-family="sans-serif" font-size="14" lengthAdjust="spacing" textLength="4" x="469.5" y="145.5889"> </text></g><g id="Read_Command.READ_SCK_FALLING"><rect fill="#F1F1F1" height="52.5938" rx="12.5" ry="12.5" style="stroke:#181818;stroke-width:0.5;" width="161" x="317" y="262.2969"/><line style="stroke:#181818;stroke-width:0.5;" x1="317" x2="478" y1="288.5938" y2="288.5938"/><text fill="#000000" font-family="sans-serif" font-size="14" lengthAdjust="spacing" textLength="141" x="327" y="280.292">READ_SCK_FALLING</text><text fill="#000000" font-family="sans-serif" font-size="14" lengthAdjust="spacing" textLength="4" x="322" y="306.5889"> </text></g><g id="Read_Command.READ_EXTRACT_1_STATE"><rect fill="#F1F1F1" height="85.1875" rx="12.5" ry="12.5" style="stroke:#181818;stroke-width:0.5;" width="203" x="379" y="383.2969"/><line style="stroke:#181818;stroke-width:0.5;" x1="379" x2="582" y1="409.5938" y2="409.5938"/><text fill="#000000" font-family="sans-serif" font-size="14" lengthAdjust="spacing" textLength="183" x="389" y="401.292">READ_EXTRACT_1_STATE</text><text fill="#000000" font-family="sans-serif" font-size="14" lengthAdjust="spacing" textLength="98" x="384" y="427.5889">extract byte 1</text><text fill="#000000" font-family="sans-serif" font-size="14" lengthAdjust="spacing" textLength="98" x="384" y="443.8857">character = 0</text><text fill="#000000" font-family="sans-serif" font-size="14" lengthAdjust="spacing" textLength="103" x="384" y="460.1826">char_count++</text></g><g id="Read_Command.READ_EXTRACT_2_STATE"><rect fill="#F1F1F1" height="52.5938" rx="12.5" ry="12.5" style="stroke:#181818;stroke-width:0.5;" width="203" x="150" y="399.2969"/><line style="stroke:#181818;stroke-width:0.5;" x1="150" x2="353" y1="425.5938" y2="425.5938"/><text fill="#000000" font-family="sans-serif" font-size="14" lengthAdjust="spacing" textLength="183" x="160" y="417.292">READ_EXTRACT_2_STATE</text><text fill="#000000" font-family="sans-serif" font-size="14" lengthAdjust="spacing" textLength="98" x="155" y="443.5889">extract byte 2</text></g><g id="Read_Command.READ_REINIT"><rect fill="#F1F1F1" height="52.5938" rx="12.5" ry="12.5" style="stroke:#181818;stroke-width:0.5;" width="113" x="19" y="399.2969"/><line style="stroke:#181818;stroke-width:0.5;" x1="19" x2="132" y1="425.5938" y2="425.5938"/><text fill="#000000" font-family="sans-serif" font-size="14" lengthAdjust="spacing" textLength="93" x="29" y="417.292">READ_REINIT</text><text fill="#000000" font-family="sans-serif" font-size="14" lengthAdjust="spacing" textLength="4" x="24" y="443.5889"> </text></g><ellipse cx="252.5" cy="54.2969" fill="#222222" rx="10" ry="10" style="stroke:none;stroke-width:1.0;"/><!--MD5=[7156bc9324c513fce2f35846bcf34df2]
link *start*Read_Command to READ_IDLE--><g id="link_*start*Read_Command_READ_IDLE"><path d="M252.5,64.3569 C252.5,72.3669 252.5,84.5469 252.5,96.0269 " fill="none" id="*start*Read_Command-to-READ_IDLE" style="stroke:#181818;stroke-width:1.0;"/><polygon fill="#181818" points="252.5,101.2269,256.5,92.2269,252.5,96.2269,248.5,92.2269,252.5,101.2269" style="stroke:#181818;stroke-width:1.0;"/></g><!--MD5=[7cac80a5c4e4e0f3d5a071acda91c024]
link READ_IDLE to READ_SCK_RISING--><g id="link_READ_IDLE_READ_SCK_RISING"><path d="M302.16,127.7969 C345.36,127.7969 408.76,127.7969 459.17,127.7969 " fill="none" id="READ_IDLE-to-READ_SCK_RISING" style="stroke:#181818;stroke-width:1.0;"/><polygon fill="#181818" points="464.32,127.7969,455.32,123.7969,459.32,127.7969,455.32,131.7969,464.32,127.7969" style="stroke:#181818;stroke-width:1.0;"/><text fill="#000000" font-family="sans-serif" font-size="13" lengthAdjust="spacing" textLength="143" x="311.75" y="65.8638">CS == 0 and SCK==0</text><line style="stroke:#181818;stroke-width:1.0;" x1="311.75" x2="454.75" y1="73.9297" y2="73.9297"/><text fill="#000000" font-family="sans-serif" font-size="13" lengthAdjust="spacing" textLength="88" x="339.25" y="90.9966">character = 0</text><text fill="#000000" font-family="sans-serif" font-size="13" lengthAdjust="spacing" textLength="98" x="334.25" y="106.1294">char_count = 0</text><text fill="#000000" font-family="sans-serif" font-size="13" lengthAdjust="spacing" textLength="87" x="339.75" y="121.2622">bit_count = 8</text></g><!--MD5=[311a8d831dcd5b37a365ce88c474b3d2]
link READ_SCK_RISING to READ_SCK_FALLING--><g id="link_READ_SCK_RISING_READ_SCK_FALLING"><path d="M542.27,154.3469 C543.6,179.9969 541.5,219.2069 520.5,244.2969 C510.57,256.1569 497.19,264.7869 482.9,271.0569 " fill="none" id="READ_SCK_RISING-to-READ_SCK_FALLING" style="stroke:#181818;stroke-width:1.0;"/><polygon fill="#181818" points="478.03,273.0969,487.8764,273.3168,482.6433,271.1687,484.7914,265.9356,478.03,273.0969" style="stroke:#181818;stroke-width:1.0;"/><text fill="#000000" font-family="sans-serif" font-size="13" lengthAdjust="spacing" textLength="64" x="568" y="185.3638">SCK == 1</text><line style="stroke:#181818;stroke-width:1.0;" x1="542.5" x2="657.5" y1="193.4297" y2="193.4297"/><text fill="#000000" font-family="sans-serif" font-size="13" lengthAdjust="spacing" textLength="70" x="565" y="210.4966">bit_count--</text><text fill="#000000" font-family="sans-serif" font-size="13" lengthAdjust="spacing" textLength="81" x="559.5" y="225.6294">if(DIO == 1)</text><text fill="#000000" font-family="sans-serif" font-size="13" lengthAdjust="spacing" textLength="83" x="574.5" y="240.7622">character++</text></g><!--MD5=[19391255a3236b8c937938b12cf9c5f8]
reverse link READ_IDLE to READ_SCK_RISING--><g id="link_READ_IDLE_READ_SCK_RISING"><path d="M307.28,140.1169 C323.74,143.2769 341.9,146.2269 358.75,147.7969 C393.49,151.0369 431.91,147.7569 464.37,142.9769 " fill="none" id="READ_IDLE-backto-READ_SCK_RISING" style="stroke:#181818;stroke-width:1.0;"/><polygon fill="#181818" points="302.23,139.1369,310.2962,144.7881,307.1373,140.0954,311.8299,136.9365,302.23,139.1369" style="stroke:#181818;stroke-width:1.0;"/><text fill="#000000" font-family="sans-serif" font-size="13" lengthAdjust="spacing" textLength="47" x="359.75" y="143.8638">CS==1</text></g><!--MD5=[defc96ecdcb4dbd70780f57b82955902]
link READ_SCK_RISING to READ_SCK_RISING--><g id="link_READ_SCK_RISING_READ_SCK_RISING"><path d="M614.67,120.3969 C625.34,121.5869 632.5,124.0569 632.5,127.7969 C632.5,130.8969 627.59,133.1169 619.84,134.4669 " fill="none" id="READ_SCK_RISING-to-READ_SCK_RISING" style="stroke:#181818;stroke-width:1.0;"/><polygon fill="#181818" points="614.67,135.1969,624.1409,137.8992,619.6209,134.4978,623.0223,129.9778,614.67,135.1969" style="stroke:#181818;stroke-width:1.0;"/><text fill="#000000" font-family="sans-serif" font-size="13" lengthAdjust="spacing" textLength="64" x="638.5" y="132.3638">SCK == 0</text></g><!--MD5=[230d4e2ebb3c007f91bae3cf438d8d8a]
link READ_SCK_FALLING to READ_EXTRACT_1_STATE--><g id="link_READ_SCK_FALLING_READ_EXTRACT_1_STATE"><path d="M441.73,315.3569 C448.08,320.6169 453.99,326.6169 458.5,333.2969 C467.37,346.4369 472.67,362.7669 475.84,377.9669 " fill="none" id="READ_SCK_FALLING-to-READ_EXTRACT_1_STATE" style="stroke:#181818;stroke-width:1.0;"/><polygon fill="#181818" points="476.84,383.0769,479.0404,373.477,475.8814,378.1696,471.1888,375.0107,476.84,383.0769" style="stroke:#181818;stroke-width:1.0;"/><text fill="#000000" font-family="sans-serif" font-size="13" lengthAdjust="spacing" textLength="169" x="472.5" y="346.3638">CLK == 0 and count == 0</text><text fill="#000000" font-family="sans-serif" font-size="13" lengthAdjust="spacing" textLength="137" x="490.5" y="361.4966">and char_count == 0</text></g><!--MD5=[4de731d7023e671e58ab207016f32a9f]
link READ_SCK_FALLING to READ_EXTRACT_2_STATE--><g id="link_READ_SCK_FALLING_READ_EXTRACT_2_STATE"><path d="M316.86,308.1269 C303,314.2569 289.77,322.4269 279.5,333.2969 C264,349.6969 257.06,374.4569 253.97,394.0969 " fill="none" id="READ_SCK_FALLING-to-READ_EXTRACT_2_STATE" style="stroke:#181818;stroke-width:1.0;"/><polygon fill="#181818" points="253.23,399.2269,258.4761,390.8915,253.9451,394.2783,250.5583,389.7473,253.23,399.2269" style="stroke:#181818;stroke-width:1.0;"/><text fill="#000000" font-family="sans-serif" font-size="13" lengthAdjust="spacing" textLength="169" x="280.5" y="346.3638">CLK == 0 and count == 0</text><text fill="#000000" font-family="sans-serif" font-size="13" lengthAdjust="spacing" textLength="131" x="301.5" y="361.4966">and char_count != 0</text></g><!--MD5=[b8fd3ff3cfb61296ab269e38ed37f1b8]
reverse link READ_SCK_RISING to READ_SCK_FALLING--><g id="link_READ_SCK_RISING_READ_SCK_FALLING"><path d="M459.26,137.3969 C414.57,144.0169 365.23,155.0369 351.5,172.2969 C331.59,197.3469 338.84,214.9069 351.5,244.2969 C354.28,250.7569 358.55,256.7069 363.38,261.9969 " fill="none" id="READ_SCK_RISING-backto-READ_SCK_FALLING" style="stroke:#181818;stroke-width:1.0;"/><polygon fill="#181818" points="464.4,136.6469,454.9129,134.002,459.4534,137.376,456.0795,141.9165,464.4,136.6469" style="stroke:#181818;stroke-width:1.0;"/><text fill="#000000" font-family="sans-serif" font-size="13" lengthAdjust="spacing" textLength="163" x="352.5" y="200.3638">CLK == 0 and count != 0</text><line style="stroke:#181818;stroke-width:1.0;" x1="352.5" x2="515.5" y1="208.4297" y2="208.4297"/><text fill="#000000" font-family="sans-serif" font-size="13" lengthAdjust="spacing" textLength="110" x="379" y="225.4966">character &lt;&lt;= 1</text></g><!--MD5=[0904cfd20ac091387da797ede2a90274]
reverse link READ_IDLE to READ_SCK_FALLING--><g id="link_READ_IDLE_READ_SCK_FALLING"><path d="M258.07,159.4869 C264.03,189.3169 274.18,231.8769 285.5,244.2969 C294.14,253.7769 305.1,261.2069 316.75,267.0369 " fill="none" id="READ_IDLE-backto-READ_SCK_FALLING" style="stroke:#181818;stroke-width:1.0;"/><polygon fill="#181818" points="257.08,154.4469,254.8744,164.0456,258.0359,159.3547,262.7268,162.5162,257.08,154.4469" style="stroke:#181818;stroke-width:1.0;"/><text fill="#000000" font-family="sans-serif" font-size="13" lengthAdjust="spacing" textLength="4" x="308" y="205.3638"> </text><text fill="#000000" font-family="sans-serif" font-size="13" lengthAdjust="spacing" textLength="47" x="286.5" y="220.4966">CS==1</text></g><!--MD5=[b0c1da0cceaa846a1d7b2411399a23ae]
link READ_SCK_FALLING to READ_SCK_FALLING--><g id="link_READ_SCK_FALLING_READ_SCK_FALLING"><path d="M478.27,278.8769 C488.93,280.5669 496,283.8769 496,288.7969 C496,292.8769 491.15,295.8369 483.43,297.7069 " fill="none" id="READ_SCK_FALLING-to-READ_SCK_FALLING" style="stroke:#181818;stroke-width:1.0;"/><polygon fill="#181818" points="478.27,298.7169,487.8699,300.9173,483.1773,297.7583,486.3362,293.0657,478.27,298.7169" style="stroke:#181818;stroke-width:1.0;"/><text fill="#000000" font-family="sans-serif" font-size="13" lengthAdjust="spacing" textLength="63" x="502" y="293.3638">CLK == 1</text></g><!--MD5=[c70245fdd03077314bd61b284a969f14]
reverse link READ_SCK_RISING to READ_EXTRACT_1_STATE--><g id="link_READ_SCK_RISING_READ_EXTRACT_1_STATE"><path d="M619.72,142.2269 C635.71,148.6869 650.61,158.2269 660.5,172.2969 C678.04,197.2369 664.11,347.7069 650.5,365.2969 C633.67,387.0669 608.32,400.8969 582.3,409.6769 " fill="none" id="READ_SCK_RISING-backto-READ_EXTRACT_1_STATE" style="stroke:#181818;stroke-width:1.0;"/><polygon fill="#181818" points="614.73,140.3169,621.7085,147.2668,619.4004,142.1022,624.565,139.7941,614.73,140.3169" style="stroke:#181818;stroke-width:1.0;"/></g><!--MD5=[c9c4d601b211c4af41d363056f6f2218]
reverse link READ_IDLE to READ_EXTRACT_1_STATE--><g id="link_READ_IDLE_READ_EXTRACT_1_STATE"><path d="M242.92,159.4769 C229.39,209.5869 211.67,309.0369 263.5,365.2969 C293.5,397.8669 318.69,371.9769 361.5,383.2969 C367.21,384.8069 373.04,386.4569 378.9,388.2069 " fill="none" id="READ_IDLE-backto-READ_EXTRACT_1_STATE" style="stroke:#181818;stroke-width:1.0;"/><polygon fill="#181818" points="244.3,154.4869,238.0499,162.0985,242.9699,159.3067,245.7617,164.2267,244.3,154.4869" style="stroke:#181818;stroke-width:1.0;"/><text fill="#000000" font-family="sans-serif" font-size="13" lengthAdjust="spacing" textLength="47" x="237.5" y="293.3638">CS==1</text></g><!--MD5=[feeea2f61825d7ed43ee471dbdb0c9bd]
reverse link READ_REINIT to READ_EXTRACT_2_STATE--><g id="link_READ_REINIT_READ_EXTRACT_2_STATE"><path d="M137.48,425.7969 C141.62,425.7969 145.77,425.7969 149.92,425.7969 " fill="none" id="READ_REINIT-backto-READ_EXTRACT_2_STATE" style="stroke:#181818;stroke-width:1.0;"/><polygon fill="#181818" points="132.22,425.7969,141.22,429.7969,137.22,425.7969,141.22,421.7969,132.22,425.7969" style="stroke:#181818;stroke-width:1.0;"/></g><!--MD5=[9557ca623743b750df82491c5c80b54b]
reverse link READ_IDLE to READ_EXTRACT_2_STATE--><g id="link_READ_IDLE_READ_EXTRACT_2_STATE"><path d="M227.05,158.8669 C199.43,195.2669 161.38,258.7469 178.5,315.2969 C188.17,347.2269 210.55,378.3469 228,399.2069 " fill="none" id="READ_IDLE-backto-READ_EXTRACT_2_STATE" style="stroke:#181818;stroke-width:1.0;"/><polygon fill="#181818" points="230.37,154.5569,221.7129,159.2532,227.3221,158.5205,228.0548,164.1297,230.37,154.5569" style="stroke:#181818;stroke-width:1.0;"/><text fill="#000000" font-family="sans-serif" font-size="13" lengthAdjust="spacing" textLength="47" x="179.5" y="293.3638">CS==1</text></g><!--MD5=[19778d49ca7b6debcc69f70c31356200]
reverse link READ_IDLE to READ_REINIT--><g id="link_READ_IDLE_READ_REINIT"><path d="M198.22,155.9269 C190.83,160.8269 183.68,166.3069 177.5,172.2969 C111.48,236.3069 86.9,348.8069 78.9,399.1669 " fill="none" id="READ_IDLE-backto-READ_REINIT" style="stroke:#181818;stroke-width:1.0;"/><polygon fill="#181818" points="202.85,152.9469,193.12,154.4724,198.6506,155.6608,197.4622,161.1914,202.85,152.9469" style="stroke:#181818;stroke-width:1.0;"/><text fill="#000000" font-family="sans-serif" font-size="13" lengthAdjust="spacing" textLength="47" x="118.5" y="293.3638">CS==1</text></g><g id="Shift_Register"><rect fill="#F1F1F1" height="50" rx="12.5" ry="12.5" style="stroke:#181818;stroke-width:0.5;" width="118" x="303.5" y="538"/><line style="stroke:#181818;stroke-width:0.5;" x1="303.5" x2="421.5" y1="564.2969" y2="564.2969"/><text fill="#000000" font-family="sans-serif" font-size="14" lengthAdjust="spacing" textLength="98" x="313.5" y="555.9951">Shift_Register</text></g><!--MD5=[f41eb4725b25227e2cc7d8b2118fe3a2]
reverse link Read_Command to Shift_Register--><g id="link_Read_Command_Shift_Register"><path d="M351.34,483.54 C352.26,505.05 353.59,523.89 355.33,537.71 " fill="none" id="Read_Command-backto-Shift_Register" style="stroke:#181818;stroke-width:1.0;"/><polygon fill="#181818" points="351.12,478.32,347.509,487.483,351.3341,483.3154,355.5017,487.1405,351.12,478.32" style="stroke:#181818;stroke-width:1.0;"/></g><!--MD5=[c16a042311fe12a1542f85a1a9aa0f4d]
link Read_Command to Shift_Register--><g id="link_Read_Command_Shift_Register"><path d="M374.55,478.32 C373.67,499.41 372.4,518.2 370.73,532.6 " fill="none" id="Read_Command-to-Shift_Register" style="stroke:#181818;stroke-width:1.0;"/><polygon fill="#181818" points="370.09,537.71,375.1635,529.2685,370.7032,532.7477,367.2239,528.2874,370.09,537.71" style="stroke:#181818;stroke-width:1.0;"/></g><!--MD5=[fb82969d1280e92e391717e9ea525569]
@startuml
'scale 700 width
'scale 550 height

Shift_Register -u-> Read_Command
Read_Command -d-> Shift_Register

state Read_Command {

READ_IDLE    :
READ_SCK_RISING :
READ_SCK_FALLING  :
READ_EXTRACT_1_STATE : extract byte 1\ncharacter = 0\nchar_count++
READ_EXTRACT_2_STATE : extract byte 2
READ_REINIT  :

[*] - -> READ_IDLE

READ_IDLE - -r-> READ_SCK_RISING : CS == 0 and SCK==0\n- - - -\ncharacter = 0\nchar_count = 0\nbit_count = 8

READ_SCK_RISING -d-> READ_SCK_FALLING : SCK == 1\n- - - -\nbit_count- -\nif(DIO == 1)\n\tcharacter++
READ_SCK_RISING - -l-> READ_IDLE : CS==1
READ_SCK_RISING -[norank]-> READ_SCK_RISING : SCK == 0

READ_SCK_FALLING - -> READ_EXTRACT_1_STATE : CLK == 0 and count == 0 \nand char_count == 0
READ_SCK_FALLING - -> READ_EXTRACT_2_STATE : CLK == 0 and count == 0 \nand char_count != 0
READ_SCK_FALLING -u-> READ_SCK_RISING : CLK == 0 and count != 0\n- - - -\ncharacter <<= 1
READ_SCK_FALLING -l-> READ_IDLE : \nCS==1
READ_SCK_FALLING -[norank]-> READ_SCK_FALLING : CLK == 1

READ_EXTRACT_1_STATE -u-> READ_SCK_RISING
READ_EXTRACT_1_STATE -u-> READ_IDLE :CS==1

READ_EXTRACT_2_STATE - -l-> READ_REINIT
READ_EXTRACT_2_STATE -u-> READ_IDLE :CS==1

READ_REINIT -[norank]u-> READ_IDLE : CS==1
'READ_REINIT -u-> READ_IDLE : \t
}

state Shift_Register {
}
@enduml

@startuml

Shift_Register -u-> Read_Command
Read_Command -d-> Shift_Register

state Read_Command {

READ_IDLE    :
READ_SCK_RISING :
READ_SCK_FALLING  :
READ_EXTRACT_1_STATE : extract byte 1\ncharacter = 0\nchar_count++
READ_EXTRACT_2_STATE : extract byte 2
READ_REINIT  :

[*] - -> READ_IDLE

READ_IDLE - -r-> READ_SCK_RISING : CS == 0 and SCK==0\n- - - -\ncharacter = 0\nchar_count = 0\nbit_count = 8

READ_SCK_RISING -d-> READ_SCK_FALLING : SCK == 1\n- - - -\nbit_count- -\nif(DIO == 1)\n\tcharacter++
READ_SCK_RISING - -l-> READ_IDLE : CS==1
READ_SCK_RISING -[norank]-> READ_SCK_RISING : SCK == 0

READ_SCK_FALLING - -> READ_EXTRACT_1_STATE : CLK == 0 and count == 0 \nand char_count == 0
READ_SCK_FALLING - -> READ_EXTRACT_2_STATE : CLK == 0 and count == 0 \nand char_count != 0
READ_SCK_FALLING -u-> READ_SCK_RISING : CLK == 0 and count != 0\n- - - -\ncharacter <<= 1
READ_SCK_FALLING -l-> READ_IDLE : \nCS==1
READ_SCK_FALLING -[norank]-> READ_SCK_FALLING : CLK == 1

READ_EXTRACT_1_STATE -u-> READ_SCK_RISING
READ_EXTRACT_1_STATE -u-> READ_IDLE :CS==1

READ_EXTRACT_2_STATE - -l-> READ_REINIT
READ_EXTRACT_2_STATE -u-> READ_IDLE :CS==1

READ_REINIT -[norank]u-> READ_IDLE : CS==1
}

state Shift_Register {
}
@enduml

PlantUML version 1.2022.4(Sat Apr 09 15:29:17 CEST 2022)
(GPL source distribution)
Java Runtime: OpenJDK Runtime Environment
JVM: OpenJDK 64-Bit Server VM
Default Encoding: UTF-8
Language: en
Country: US
--></g></svg>