<?xml version="1.0" encoding="UTF-8" standalone="no"?><svg xmlns="http://www.w3.org/2000/svg" xmlns:xlink="http://www.w3.org/1999/xlink" contentStyleType="text/css" height="755px" preserveAspectRatio="none" style="width:700px;height:755px;background:#FFFFFF;" version="1.1" viewBox="0 0 700 755" width="700px" zoomAndPan="magnify"><defs/><g><rect fill="#F1F1F1" height="632.4844" rx="12.5" ry="12.5" style="stroke:#181818;stroke-width:0.5;" width="686.04" x="7" y="7"/><rect fill="#FFFFFF" height="604.1875" rx="12.5" ry="12.5" style="stroke:#FFFFFF;stroke-width:1.0;" width="684.04" x="8" y="34.2969"/><line style="stroke:#181818;stroke-width:0.5;" x1="7" x2="693.04" y1="33.2969" y2="33.2969"/><text fill="#000000" font-family="sans-serif" font-size="14" lengthAdjust="spacing" textLength="118" x="291.02" y="24.9951">Read_Command</text><g id="Read_Command.READ_IDLE"><rect fill="#F1F1F1" height="52.5938" rx="12.5" ry="12.5" style="stroke:#181818;stroke-width:0.5;" width="99" x="196.04" y="101.2969"/><line style="stroke:#181818;stroke-width:0.5;" x1="196.04" x2="295.04" y1="127.5938" y2="127.5938"/><text fill="#000000" font-family="sans-serif" font-size="14" lengthAdjust="spacing" textLength="79" x="206.04" y="119.292">READ_IDLE</text><text fill="#000000" font-family="sans-serif" font-size="14" lengthAdjust="spacing" textLength="4" x="201.04" y="145.5889"> </text></g><g id="Read_Command.READ_SCK_RISING"><rect fill="#F1F1F1" height="52.5938" rx="12.5" ry="12.5" style="stroke:#181818;stroke-width:0.5;" width="150" x="348.54" y="262.2969"/><line style="stroke:#181818;stroke-width:0.5;" x1="348.54" x2="498.54" y1="288.5938" y2="288.5938"/><text fill="#000000" font-family="sans-serif" font-size="14" lengthAdjust="spacing" textLength="130" x="358.54" y="280.292">READ_SCK_RISING</text><text fill="#000000" font-family="sans-serif" font-size="14" lengthAdjust="spacing" textLength="4" x="353.54" y="306.5889"> </text></g><g id="Read_Command.READ_SCK_FALLING"><rect fill="#F1F1F1" height="52.5938" rx="12.5" ry="12.5" style="stroke:#181818;stroke-width:0.5;" width="161" x="183.04" y="423.2969"/><line style="stroke:#181818;stroke-width:0.5;" x1="183.04" x2="344.04" y1="449.5938" y2="449.5938"/><text fill="#000000" font-family="sans-serif" font-size="14" lengthAdjust="spacing" textLength="141" x="193.04" y="441.292">READ_SCK_FALLING</text><text fill="#000000" font-family="sans-serif" font-size="14" lengthAdjust="spacing" textLength="4" x="188.04" y="467.5889"> </text></g><g id="Read_Command.READ_EXTRACT_1_STATE"><rect fill="#F1F1F1" height="85.1875" rx="12.5" ry="12.5" style="stroke:#181818;stroke-width:0.5;" width="203" x="481.04" y="544.2969"/><line style="stroke:#181818;stroke-width:0.5;" x1="481.04" x2="684.04" y1="570.5938" y2="570.5938"/><text fill="#000000" font-family="sans-serif" font-size="14" lengthAdjust="spacing" textLength="183" x="491.04" y="562.292">READ_EXTRACT_1_STATE</text><text fill="#000000" font-family="sans-serif" font-size="14" lengthAdjust="spacing" textLength="98" x="486.04" y="588.5889">extract byte 1</text><text fill="#000000" font-family="sans-serif" font-size="14" lengthAdjust="spacing" textLength="98" x="486.04" y="604.8857">character = 0</text><text fill="#000000" font-family="sans-serif" font-size="14" lengthAdjust="spacing" textLength="103" x="486.04" y="621.1826">char_count++</text></g><g id="Read_Command.READ_EXTRACT_2_STATE"><rect fill="#F1F1F1" height="52.5938" rx="12.5" ry="12.5" style="stroke:#181818;stroke-width:0.5;" width="203" x="53.04" y="560.2969"/><line style="stroke:#181818;stroke-width:0.5;" x1="53.04" x2="256.04" y1="586.5938" y2="586.5938"/><text fill="#000000" font-family="sans-serif" font-size="14" lengthAdjust="spacing" textLength="183" x="63.04" y="578.292">READ_EXTRACT_2_STATE</text><text fill="#000000" font-family="sans-serif" font-size="14" lengthAdjust="spacing" textLength="98" x="58.04" y="604.5889">extract byte 2</text></g><g id="Read_Command.READ_REINIT"><rect fill="#F1F1F1" height="52.5938" rx="12.5" ry="12.5" style="stroke:#181818;stroke-width:0.5;" width="113" x="101.04" y="342.7969"/><line style="stroke:#181818;stroke-width:0.5;" x1="101.04" x2="214.04" y1="369.0938" y2="369.0938"/><text fill="#000000" font-family="sans-serif" font-size="14" lengthAdjust="spacing" textLength="93" x="111.04" y="360.792">READ_REINIT</text><text fill="#000000" font-family="sans-serif" font-size="14" lengthAdjust="spacing" textLength="4" x="106.04" y="387.0889"> </text></g><ellipse cx="245.54" cy="54.2969" fill="#222222" rx="10" ry="10" style="stroke:none;stroke-width:1.0;"/><!--MD5=[7156bc9324c513fce2f35846bcf34df2]
link *start*Read_Command to READ_IDLE--><g id="link_*start*Read_Command_READ_IDLE"><path d="M245.54,64.3569 C245.54,72.3669 245.54,84.5469 245.54,96.0269 " fill="none" id="*start*Read_Command-to-READ_IDLE" style="stroke:#181818;stroke-width:1.0;"/><polygon fill="#181818" points="245.54,101.2269,249.54,92.2269,245.54,96.2269,241.54,92.2269,245.54,101.2269" style="stroke:#181818;stroke-width:1.0;"/></g><!--MD5=[7cac80a5c4e4e0f3d5a071acda91c024]
link READ_IDLE to READ_SCK_RISING--><g id="link_READ_IDLE_READ_SCK_RISING"><path d="M242.13,154.6469 C240.25,180.5469 241.75,219.9469 263.54,244.2969 C283.68,266.8069 314.19,278.1669 343.19,283.7469 " fill="none" id="READ_IDLE-to-READ_SCK_RISING" style="stroke:#181818;stroke-width:1.0;"/><polygon fill="#181818" points="348.2,284.6569,340.0494,279.1281,343.2788,283.7725,338.6344,287.0019,348.2,284.6569" style="stroke:#181818;stroke-width:1.0;"/><text fill="#000000" font-family="sans-serif" font-size="13" lengthAdjust="spacing" textLength="143" x="264.54" y="185.3638">CS == 0 and SCK==0</text><line style="stroke:#181818;stroke-width:1.0;" x1="264.54" x2="407.54" y1="193.4297" y2="193.4297"/><text fill="#000000" font-family="sans-serif" font-size="13" lengthAdjust="spacing" textLength="88" x="292.04" y="210.4966">character = 0</text><text fill="#000000" font-family="sans-serif" font-size="13" lengthAdjust="spacing" textLength="98" x="287.04" y="225.6294">char_count = 0</text><text fill="#000000" font-family="sans-serif" font-size="13" lengthAdjust="spacing" textLength="87" x="292.54" y="240.7622">bit_count = 8</text></g><!--MD5=[311a8d831dcd5b37a365ce88c474b3d2]
link READ_SCK_RISING to READ_SCK_FALLING--><g id="link_READ_SCK_RISING_READ_SCK_FALLING"><path d="M433.39,315.6069 C441.28,341.0969 448.14,379.8569 428.54,405.2969 C418.15,418.7769 383.88,428.9169 349.23,435.9969 " fill="none" id="READ_SCK_RISING-to-READ_SCK_FALLING" style="stroke:#181818;stroke-width:1.0;"/><polygon fill="#181818" points="344.12,437.0169,353.7321,439.1634,349.0218,436.0308,352.1544,431.3205,344.12,437.0169" style="stroke:#181818;stroke-width:1.0;"/><text fill="#000000" font-family="sans-serif" font-size="13" lengthAdjust="spacing" textLength="64" x="467.04" y="346.3638">SCK == 1</text><line style="stroke:#181818;stroke-width:1.0;" x1="441.54" x2="556.54" y1="354.4297" y2="354.4297"/><text fill="#000000" font-family="sans-serif" font-size="13" lengthAdjust="spacing" textLength="70" x="464.04" y="371.4966">bit_count--</text><text fill="#000000" font-family="sans-serif" font-size="13" lengthAdjust="spacing" textLength="81" x="458.54" y="386.6294">if(DIO == 1)</text><text fill="#000000" font-family="sans-serif" font-size="13" lengthAdjust="spacing" textLength="83" x="473.54" y="401.7622">character++</text></g><!--MD5=[19391255a3236b8c937938b12cf9c5f8]
reverse link READ_IDLE to READ_SCK_RISING--><g id="link_READ_IDLE_READ_SCK_RISING"><path d="M300.07,136.7169 C341.68,143.9269 394.21,155.9469 408.54,172.2969 C429.99,196.7769 430.39,236.1469 427.74,261.9969 " fill="none" id="READ_IDLE-backto-READ_SCK_RISING" style="stroke:#181818;stroke-width:1.0;"/><polygon fill="#181818" points="295.06,135.8669,303.2569,141.3267,299.9885,136.7097,304.6055,133.4412,295.06,135.8669" style="stroke:#181818;stroke-width:1.0;"/><text fill="#000000" font-family="sans-serif" font-size="13" lengthAdjust="spacing" textLength="47" x="429.54" y="212.8638">CS==1</text></g><!--MD5=[defc96ecdcb4dbd70780f57b82955902]
link READ_SCK_RISING to READ_SCK_RISING--><g id="link_READ_SCK_RISING_READ_SCK_RISING"><path d="M498.7,275.3369 C509.38,277.5169 516.54,281.9969 516.54,288.7969 C516.54,294.4269 511.63,298.4669 503.88,300.9269 " fill="none" id="READ_SCK_RISING-to-READ_SCK_RISING" style="stroke:#181818;stroke-width:1.0;"/><polygon fill="#181818" points="498.7,302.2569,508.4118,303.8941,503.5431,301.014,506.4232,296.1452,498.7,302.2569" style="stroke:#181818;stroke-width:1.0;"/><text fill="#000000" font-family="sans-serif" font-size="13" lengthAdjust="spacing" textLength="64" x="522.54" y="293.3638">SCK == 0</text></g><!--MD5=[230d4e2ebb3c007f91bae3cf438d8d8a]
link READ_SCK_FALLING to READ_EXTRACT_1_STATE--><g id="link_READ_SCK_FALLING_READ_EXTRACT_1_STATE"><path d="M336.26,476.3669 C346.87,481.5369 357.31,487.5069 366.54,494.2969 C381.52,505.3269 378.05,515.9869 393.54,526.2969 C418.17,542.6969 447.59,554.7969 475.79,563.6269 " fill="none" id="READ_SCK_FALLING-to-READ_EXTRACT_1_STATE" style="stroke:#181818;stroke-width:1.0;"/><polygon fill="#181818" points="480.68,565.1269,473.253,558.6585,475.9008,563.6574,470.9019,566.3053,480.68,565.1269" style="stroke:#181818;stroke-width:1.0;"/><text fill="#000000" font-family="sans-serif" font-size="13" lengthAdjust="spacing" textLength="169" x="394.54" y="507.3638">CLK == 0 and count == 0</text><text fill="#000000" font-family="sans-serif" font-size="13" lengthAdjust="spacing" textLength="137" x="412.54" y="522.4966">and char_count == 0</text></g><!--MD5=[4de731d7023e671e58ab207016f32a9f]
link READ_SCK_FALLING to READ_EXTRACT_2_STATE--><g id="link_READ_SCK_FALLING_READ_EXTRACT_2_STATE"><path d="M211.54,476.5169 C204.19,481.6969 197.22,487.6269 191.54,494.2969 C176.7,511.6969 167.28,535.8269 161.66,554.9369 " fill="none" id="READ_SCK_FALLING-to-READ_EXTRACT_2_STATE" style="stroke:#181818;stroke-width:1.0;"/><polygon fill="#181818" points="160.17,560.1769,166.4619,552.5998,161.5266,555.3644,158.762,550.4292,160.17,560.1769" style="stroke:#181818;stroke-width:1.0;"/><text fill="#000000" font-family="sans-serif" font-size="13" lengthAdjust="spacing" textLength="169" x="192.54" y="507.3638">CLK == 0 and count == 0</text><text fill="#000000" font-family="sans-serif" font-size="13" lengthAdjust="spacing" textLength="131" x="213.54" y="522.4966">and char_count != 0</text></g><!--MD5=[b8fd3ff3cfb61296ab269e38ed37f1b8]
reverse link READ_SCK_RISING to READ_SCK_FALLING--><g id="link_READ_SCK_RISING_READ_SCK_FALLING"><path d="M343.07,301.7069 C307.08,308.8369 270.32,319.2769 259.54,333.2969 C239.96,358.7369 246.42,397.4969 254.01,422.9869 " fill="none" id="READ_SCK_RISING-backto-READ_SCK_FALLING" style="stroke:#181818;stroke-width:1.0;"/><polygon fill="#181818" points="348.37,300.6769,338.7763,298.4495,343.4601,301.6216,340.2879,306.3054,348.37,300.6769" style="stroke:#181818;stroke-width:1.0;"/><text fill="#000000" font-family="sans-serif" font-size="13" lengthAdjust="spacing" textLength="163" x="260.54" y="361.3638">CLK == 0 and count != 0</text><line style="stroke:#181818;stroke-width:1.0;" x1="260.54" x2="423.54" y1="369.4297" y2="369.4297"/><text fill="#000000" font-family="sans-serif" font-size="13" lengthAdjust="spacing" textLength="110" x="287.04" y="386.4966">character &lt;&lt;= 1</text></g><!--MD5=[0904cfd20ac091387da797ede2a90274]
reverse link READ_IDLE to READ_SCK_FALLING--><g id="link_READ_IDLE_READ_SCK_FALLING"><path d="M240.95,159.4569 C234.21,210.9569 224.38,317.7969 243.54,405.2969 C244.85,411.3069 247.08,417.4769 249.58,423.2069 " fill="none" id="READ_IDLE-backto-READ_SCK_FALLING" style="stroke:#181818;stroke-width:1.0;"/><polygon fill="#181818" points="241.63,154.3469,236.4582,162.7286,240.9589,159.3016,244.3858,163.8023,241.63,154.3469" style="stroke:#181818;stroke-width:1.0;"/><text fill="#000000" font-family="sans-serif" font-size="13" lengthAdjust="spacing" textLength="4" x="256.04" y="285.8638"> </text><text fill="#000000" font-family="sans-serif" font-size="13" lengthAdjust="spacing" textLength="47" x="234.54" y="300.9966">CS==1</text></g><!--MD5=[b0c1da0cceaa846a1d7b2411399a23ae]
link READ_SCK_FALLING to READ_SCK_FALLING--><g id="link_READ_SCK_FALLING_READ_SCK_FALLING"><path d="M344.31,439.8769 C354.97,441.5669 362.04,444.8769 362.04,449.7969 C362.04,453.8769 357.19,456.8369 349.47,458.7069 " fill="none" id="READ_SCK_FALLING-to-READ_SCK_FALLING" style="stroke:#181818;stroke-width:1.0;"/><polygon fill="#181818" points="344.31,459.7169,353.916,461.8903,349.2145,458.7445,352.3603,454.043,344.31,459.7169" style="stroke:#181818;stroke-width:1.0;"/><text fill="#000000" font-family="sans-serif" font-size="13" lengthAdjust="spacing" textLength="63" x="368.04" y="454.3638">CLK == 1</text></g><!--MD5=[c70245fdd03077314bd61b284a969f14]
reverse link READ_SCK_RISING to READ_EXTRACT_1_STATE--><g id="link_READ_SCK_RISING_READ_EXTRACT_1_STATE"><path d="M503.76,298.4369 C525.65,304.7569 547.25,315.4169 561.54,333.2969 C609.59,393.4369 601.76,489.3469 591.99,544.0169 " fill="none" id="READ_SCK_RISING-backto-READ_EXTRACT_1_STATE" style="stroke:#181818;stroke-width:1.0;"/><polygon fill="#181818" points="498.79,297.0769,506.4235,303.3002,503.6145,298.39,508.5246,295.581,498.79,297.0769" style="stroke:#181818;stroke-width:1.0;"/></g><!--MD5=[c9c4d601b211c4af41d363056f6f2218]
reverse link READ_IDLE to READ_EXTRACT_1_STATE--><g id="link_READ_IDLE_READ_EXTRACT_1_STATE"><path d="M300.35,128.9369 C385.45,132.6169 545.42,154.2969 601.54,262.2969 C655.64,366.4369 628.9,411.0969 606.54,526.2969 C605.39,532.1969 603.66,538.2669 601.64,544.1469 " fill="none" id="READ_IDLE-backto-READ_EXTRACT_1_STATE" style="stroke:#181818;stroke-width:1.0;"/><polygon fill="#181818" points="295.1,128.7269,303.9329,133.0834,300.096,128.9267,304.2527,125.0898,295.1,128.7269" style="stroke:#181818;stroke-width:1.0;"/><text fill="#000000" font-family="sans-serif" font-size="13" lengthAdjust="spacing" textLength="47" x="633.54" y="373.8638">CS==1</text></g><!--MD5=[feeea2f61825d7ed43ee471dbdb0c9bd]
reverse link READ_REINIT to READ_EXTRACT_2_STATE--><g id="link_READ_REINIT_READ_EXTRACT_2_STATE"><path d="M157.11,400.9069 C156.52,443.6469 155.45,520.4269 154.89,560.2669 " fill="none" id="READ_REINIT-backto-READ_EXTRACT_2_STATE" style="stroke:#181818;stroke-width:1.0;"/><polygon fill="#181818" points="157.18,395.8669,153.0518,404.8088,157.1086,400.8664,161.051,404.9231,157.18,395.8669" style="stroke:#181818;stroke-width:1.0;"/></g><!--MD5=[9557ca623743b750df82491c5c80b54b]
reverse link READ_IDLE to READ_EXTRACT_2_STATE--><g id="link_READ_IDLE_READ_EXTRACT_2_STATE"><path d="M191.16,144.2269 C174,150.9169 155.81,160.0869 141.54,172.2969 C77.71,226.9169 65.4,252.4669 42.54,333.2969 C18,420.0469 89.9,515.5569 129.83,560.1769 " fill="none" id="READ_IDLE-backto-READ_EXTRACT_2_STATE" style="stroke:#181818;stroke-width:1.0;"/><polygon fill="#181818" points="195.97,142.3969,186.1365,141.8479,191.2948,144.1697,188.973,149.3281,195.97,142.3969" style="stroke:#181818;stroke-width:1.0;"/><text fill="#000000" font-family="sans-serif" font-size="13" lengthAdjust="spacing" textLength="47" x="43.54" y="373.8638">CS==1</text></g><!--MD5=[19778d49ca7b6debcc69f70c31356200]
reverse link READ_IDLE to READ_REINIT--><g id="link_READ_IDLE_READ_REINIT"><path d="M191.34,148.8669 C181.56,154.9169 172.56,162.6169 166.54,172.2969 C133.6,225.2169 143.15,302.6369 151.28,342.4869 " fill="none" id="READ_IDLE-backto-READ_REINIT" style="stroke:#181818;stroke-width:1.0;"/><polygon fill="#181818" points="195.88,146.1969,186.0955,147.3208,191.5725,148.7357,190.1576,154.2128,195.88,146.1969" style="stroke:#181818;stroke-width:1.0;"/><text fill="#000000" font-family="sans-serif" font-size="13" lengthAdjust="spacing" textLength="47" x="167.54" y="212.8638">CS==1</text></g><g id="Shift_Register"><rect fill="#F1F1F1" height="50" rx="12.5" ry="12.5" style="stroke:#181818;stroke-width:0.5;" width="118" x="291" y="699"/><line style="stroke:#181818;stroke-width:0.5;" x1="291" x2="409" y1="725.2969" y2="725.2969"/><text fill="#000000" font-family="sans-serif" font-size="14" lengthAdjust="spacing" textLength="98" x="301" y="716.9951">Shift_Register</text></g><!--MD5=[f41eb4725b25227e2cc7d8b2118fe3a2]
reverse link Read_Command to Shift_Register--><g id="link_Read_Command_Shift_Register"><path d="M339.61,644.39 C340.6,666.32 341.9,685.12 343.51,698.83 " fill="none" id="Read_Command-backto-Shift_Register" style="stroke:#181818;stroke-width:1.0;"/><polygon fill="#181818" points="339.39,639.36,335.779,648.523,339.6041,644.3554,343.7717,648.1805,339.39,639.36" style="stroke:#181818;stroke-width:1.0;"/></g><!--MD5=[c16a042311fe12a1542f85a1a9aa0f4d]
link Read_Command to Shift_Register--><g id="link_Read_Command_Shift_Register"><path d="M361.23,639.36 C360.27,660.81 359.02,679.53 357.46,693.78 " fill="none" id="Read_Command-to-Shift_Register" style="stroke:#181818;stroke-width:1.0;"/><polygon fill="#181818" points="356.88,698.83,361.9084,690.3615,357.4667,693.8645,353.9637,689.4228,356.88,698.83" style="stroke:#181818;stroke-width:1.0;"/></g><!--MD5=[00d98d57457e81eb3a8793fc714e7ea3]
@startuml
'scale 700 width
'scale 550 height

Shift_Register -u-> Read_Command
Read_Command -d-> Shift_Register

state Read_Command {

READ_IDLE    :
READ_SCK_RISING :
READ_SCK_FALLING  :
READ_EXTRACT_1_STATE : extract byte 1\ncharacter = 0\nchar_count++
READ_EXTRACT_2_STATE : extract byte 2
READ_REINIT  :

[*] - -> READ_IDLE

READ_IDLE -d-> READ_SCK_RISING : CS == 0 and SCK==0\n- - - -\ncharacter = 0\nchar_count = 0\nbit_count = 8

READ_SCK_RISING -d-> READ_SCK_FALLING : SCK == 1\n- - - -\nbit_count- -\nif(DIO == 1)\n\tcharacter++
READ_SCK_RISING -u-> READ_IDLE : CS==1
READ_SCK_RISING - -> READ_SCK_RISING : SCK == 0

READ_SCK_FALLING - -> READ_EXTRACT_1_STATE : CLK == 0 and count == 0 \nand char_count == 0
READ_SCK_FALLING - -> READ_EXTRACT_2_STATE : CLK == 0 and count == 0 \nand char_count != 0
READ_SCK_FALLING -u-> READ_SCK_RISING : CLK == 0 and count != 0\n- - - -\ncharacter <<= 1
READ_SCK_FALLING -l-> READ_IDLE : \nCS==1
READ_SCK_FALLING - -> READ_SCK_FALLING : CLK == 1

READ_EXTRACT_1_STATE -u-> READ_SCK_RISING
READ_EXTRACT_1_STATE -u-> READ_IDLE :CS==1

READ_EXTRACT_2_STATE -l-> READ_REINIT
READ_EXTRACT_2_STATE -u-> READ_IDLE :CS==1

READ_REINIT -u-> READ_IDLE : CS==1
'READ_REINIT -u-> READ_IDLE : \t
}

state Shift_Register {
}
@enduml

@startuml

Shift_Register -u-> Read_Command
Read_Command -d-> Shift_Register

state Read_Command {

READ_IDLE    :
READ_SCK_RISING :
READ_SCK_FALLING  :
READ_EXTRACT_1_STATE : extract byte 1\ncharacter = 0\nchar_count++
READ_EXTRACT_2_STATE : extract byte 2
READ_REINIT  :

[*] - -> READ_IDLE

READ_IDLE -d-> READ_SCK_RISING : CS == 0 and SCK==0\n- - - -\ncharacter = 0\nchar_count = 0\nbit_count = 8

READ_SCK_RISING -d-> READ_SCK_FALLING : SCK == 1\n- - - -\nbit_count- -\nif(DIO == 1)\n\tcharacter++
READ_SCK_RISING -u-> READ_IDLE : CS==1
READ_SCK_RISING - -> READ_SCK_RISING : SCK == 0

READ_SCK_FALLING - -> READ_EXTRACT_1_STATE : CLK == 0 and count == 0 \nand char_count == 0
READ_SCK_FALLING - -> READ_EXTRACT_2_STATE : CLK == 0 and count == 0 \nand char_count != 0
READ_SCK_FALLING -u-> READ_SCK_RISING : CLK == 0 and count != 0\n- - - -\ncharacter <<= 1
READ_SCK_FALLING -l-> READ_IDLE : \nCS==1
READ_SCK_FALLING - -> READ_SCK_FALLING : CLK == 1

READ_EXTRACT_1_STATE -u-> READ_SCK_RISING
READ_EXTRACT_1_STATE -u-> READ_IDLE :CS==1

READ_EXTRACT_2_STATE -l-> READ_REINIT
READ_EXTRACT_2_STATE -u-> READ_IDLE :CS==1

READ_REINIT -u-> READ_IDLE : CS==1
}

state Shift_Register {
}
@enduml

PlantUML version 1.2022.4(Sat Apr 09 15:29:17 CEST 2022)
(GPL source distribution)
Java Runtime: OpenJDK Runtime Environment
JVM: OpenJDK 64-Bit Server VM
Default Encoding: UTF-8
Language: en
Country: US
--></g></svg>